<?xml version="1.0" encoding="iso-8859-1"?>
<!-- Generator: Adobe Illustrator 19.0.0, SVG Export Plug-In . SVG Version: 6.00 Build 0)  -->
<svg version="1.1" id="Capa_1" xmlns="http://www.w3.org/2000/svg" xmlns:xlink="http://www.w3.org/1999/xlink" x="0px" y="0px"
	 viewBox="0 0 512 512" style="enable-background:new 0 0 512 512;" xml:space="preserve">
<g>
	<g>
		<g>
			<polygon points="256,320 32,320 32,32 320,32 320,256 352,256 352,0 0,0 0,352 256,352 			"/>
			<polygon points="384,160 384,192 480,192 480,480 192,480 192,384 160,384 160,512 512,512 512,160 			"/>
			<polygon points="160,288 192,288 192,214.624 404.688,427.312 427.312,404.688 214.624,192 288,192 288,160 160,160 			"/>
			<rect x="96" y="96" width="32" height="32"/>
			<rect x="96" y="160" width="32" height="32"/>
			<rect x="96" y="224" width="32" height="32"/>
			<rect x="160" y="96" width="32" height="32"/>
			<rect x="224" y="96" width="32" height="32"/>
		</g>
	</g>
</g>
<g>
</g>
<g>
</g>
<g>
</g>
<g>
</g>
<g>
</g>
<g>
</g>
<g>
</g>
<g>
</g>
<g>
</g>
<g>
</g>
<g>
</g>
<g>
</g>
<g>
</g>
<g>
</g>
<g>
</g>
</svg>
