<?xml version="1.0" encoding="iso-8859-1"?>
<!-- Generator: Adobe Illustrator 19.0.0, SVG Export Plug-In . SVG Version: 6.00 Build 0)  -->
<svg version="1.1" id="Capa_1" xmlns="http://www.w3.org/2000/svg" xmlns:xlink="http://www.w3.org/1999/xlink" x="0px" y="0px"
	 viewBox="0 0 512 512" style="enable-background:new 0 0 512 512;" xml:space="preserve">
<g>
	<g>
		<g>
			<polygon points="32,32 192,32 192,64 224,64 224,0 0,0 0,224 64,224 64,192 32,192 			"/>
			<polygon points="448,288 448,320 480,320 480,480 320,480 320,448 288,448 288,512 512,512 512,288 			"/>
			<path d="M416,96H96v320h320V96z M384,384H128V128h256V384z"/>
			<rect x="160" y="160" width="32" height="32"/>
			<rect x="160" y="224" width="32" height="32"/>
			<rect x="224" y="160" width="32" height="32"/>
			<rect x="320" y="320" width="32" height="32"/>
			<rect x="320" y="256" width="32" height="32"/>
			<rect x="256" y="320" width="32" height="32"/>
		</g>
	</g>
</g>
<g>
</g>
<g>
</g>
<g>
</g>
<g>
</g>
<g>
</g>
<g>
</g>
<g>
</g>
<g>
</g>
<g>
</g>
<g>
</g>
<g>
</g>
<g>
</g>
<g>
</g>
<g>
</g>
<g>
</g>
</svg>
