<?xml version="1.0" encoding="iso-8859-1"?>
<!-- Generator: Adobe Illustrator 19.0.0, SVG Export Plug-In . SVG Version: 6.00 Build 0)  -->
<svg version="1.1" id="Capa_1" xmlns="http://www.w3.org/2000/svg" xmlns:xlink="http://www.w3.org/1999/xlink" x="0px" y="0px"
	 viewBox="0 0 512 512" style="enable-background:new 0 0 512 512;" xml:space="preserve">
<g>
	<g>
		<g>
			<rect x="160" y="320" width="32" height="32"/>
			<rect x="224" y="320" width="32" height="32"/>
			<rect x="160" y="256" width="32" height="32"/>
			<rect x="320" y="160" width="32" height="32"/>
			<rect x="256" y="160" width="32" height="32"/>
			<rect x="320" y="224" width="32" height="32"/>
			<polygon points="384,256 416,256 416,96 256,96 256,128 384,128 			"/>
			<polygon points="128,256 96,256 96,416 256,416 256,384 128,384 			"/>
			<path d="M224,0H0v224h224V0z M192,192H32V32h160V192z"/>
			<path d="M288,288v224h224V288H288z M480,480H320V320h160V480z"/>
		</g>
	</g>
</g>
<g>
</g>
<g>
</g>
<g>
</g>
<g>
</g>
<g>
</g>
<g>
</g>
<g>
</g>
<g>
</g>
<g>
</g>
<g>
</g>
<g>
</g>
<g>
</g>
<g>
</g>
<g>
</g>
<g>
</g>
</svg>
