<?xml version="1.0" encoding="iso-8859-1"?>
<!-- Generator: Adobe Illustrator 19.0.0, SVG Export Plug-In . SVG Version: 6.00 Build 0)  -->
<svg version="1.1" id="Capa_1" xmlns="http://www.w3.org/2000/svg" xmlns:xlink="http://www.w3.org/1999/xlink" x="0px" y="0px"
	 viewBox="0 0 512 512" style="enable-background:new 0 0 512 512;" xml:space="preserve">
<g>
	<g>
		<g>
			<polygon points="384,160 384,192 480,192 480,480 192,480 192,384 160,384 160,512 512,512 512,160 			"/>
			<polygon points="192,320 32,320 32,32 320,32 320,192 352,192 352,0 0,0 0,352 192,352 			"/>
			<polygon points="352,224 320,224 320,297.376 107.312,84.688 84.688,107.312 297.376,320 224,320 224,352 352,352 			"/>
			<rect x="384" y="384" width="32" height="32"/>
			<rect x="384" y="320" width="32" height="32"/>
			<rect x="384" y="256" width="32" height="32"/>
			<rect x="320" y="384" width="32" height="32"/>
			<rect x="256" y="384" width="32" height="32"/>
		</g>
	</g>
</g>
<g>
</g>
<g>
</g>
<g>
</g>
<g>
</g>
<g>
</g>
<g>
</g>
<g>
</g>
<g>
</g>
<g>
</g>
<g>
</g>
<g>
</g>
<g>
</g>
<g>
</g>
<g>
</g>
<g>
</g>
</svg>
