<?xml version="1.0" encoding="utf-8"?>
<!-- Generator: Adobe Illustrator 16.0.0, SVG Export Plug-In . SVG Version: 6.00 Build 0)  -->
<!DOCTYPE svg PUBLIC "-//W3C//DTD SVG 1.1 Tiny//EN" "http://www.w3.org/Graphics/SVG/1.1/DTD/svg11-tiny.dtd">
<svg version="1.1" baseProfile="tiny" id="Layer_1" xmlns="http://www.w3.org/2000/svg" xmlns:xlink="http://www.w3.org/1999/xlink"
	 x="0px" y="0px" width="24px" height="24px" viewBox="0 0 24 24" xml:space="preserve">
<g>
	<path d="M15.979,7.62H1.021c-0.221,0-0.4,0.18-0.4,0.4v14.959c0,0.221,0.179,0.4,0.4,0.4h14.959c0.221,0,0.4-0.18,0.4-0.4V8.021
		C16.379,7.8,16.2,7.62,15.979,7.62z M15.58,22.579H1.42V8.421H15.58V22.579z"/>
	<path d="M22.979,0.62H8.021c-0.221,0-0.4,0.18-0.4,0.4v4.959c0,0.221,0.179,0.4,0.4,0.4s0.4-0.18,0.4-0.4V1.421H22.58v14.158
		h-4.559c-0.221,0-0.4,0.18-0.4,0.4s0.179,0.4,0.4,0.4h4.959c0.221,0,0.4-0.18,0.4-0.4V1.021C23.379,0.8,23.2,0.62,22.979,0.62z"/>
</g>
</svg>
