<?xml version="1.0" encoding="iso-8859-1"?>
<!-- Generator: Adobe Illustrator 18.1.1, SVG Export Plug-In . SVG Version: 6.00 Build 0)  -->
<svg version="1.1" id="Capa_1" xmlns="http://www.w3.org/2000/svg" xmlns:xlink="http://www.w3.org/1999/xlink" x="0px" y="0px"
	 viewBox="0 0 24.882 24.882" style="enable-background:new 0 0 24.882 24.882;" xml:space="preserve">
<g>
	<g>
		<path style="fill:#030104;" d="M23.066,0.279c0.999-0.461,1.816,0.062,1.816,1.162v8c0,1.1-0.9,2-2,2h-22
			c-1.1,0-1.183-0.377-0.184-0.838L23.066,0.279z"/>
	</g>
	<g>
		<g>
			<path style="fill:#030104;" d="M22.882,15.441v6.874L7.988,15.441H22.882 M22.882,13.441h-22c-1.1,0-1.183,0.377-0.184,0.838
				l22.368,10.324c0.247,0.113,0.482,0.168,0.697,0.168c0.655,0,1.119-0.502,1.119-1.33v-8
				C24.882,14.341,23.982,13.441,22.882,13.441L22.882,13.441z"/>
		</g>
	</g>
</g>
<g>
</g>
<g>
</g>
<g>
</g>
<g>
</g>
<g>
</g>
<g>
</g>
<g>
</g>
<g>
</g>
<g>
</g>
<g>
</g>
<g>
</g>
<g>
</g>
<g>
</g>
<g>
</g>
<g>
</g>
</svg>
